<svg xmlns="http://www.w3.org/2000/svg" width="512" height="512" viewBox="0 0 512 512">
  <g stroke="#3b2233" stroke-width="14" stroke-linecap="round">
    <g fill="#3f95d4">
      <g transform="rotate(0 256 256)"><circle cx="256" cy="120" r="26"/></g>
      <g transform="rotate(36 256 256)"><circle cx="256" cy="120" r="26"/></g>
      <g transform="rotate(72 256 256)"><circle cx="256" cy="120" r="26"/></g>
      <g transform="rotate(108 256 256)"><circle cx="256" cy="120" r="26"/></g>
      <g transform="rotate(144 256 256)"><circle cx="256" cy="120" r="26"/></g>
      <g transform="rotate(180 256 256)"><circle cx="256" cy="120" r="26"/></g>
      <g transform="rotate(216 256 256)"><circle cx="256" cy="120" r="26"/></g>
      <g transform="rotate(252 256 256)"><circle cx="256" cy="120" r="26"/></g>
      <g transform="rotate(288 256 256)"><circle cx="256" cy="120" r="26"/></g>
      <g transform="rotate(324 256 256)"><circle cx="256" cy="120" r="26"/></g>
    </g>

    <circle cx="256" cy="256" r="132" fill="#6bb8f0"/>

    <circle cx="214" cy="230" r="30" fill="#ffffff"/>
    <circle cx="298" cy="230" r="30" fill="#ffffff"/>
    <circle cx="221" cy="238" r="13" fill="#3b2233" stroke="none"/>
    <circle cx="305" cy="238" r="13" fill="#3b2233" stroke="none"/>
    <path d="M 202 300 Q 229 322 256 300 Q 283 278 310 300" fill="none"/>
  </g>
</svg>
